<?xml version="1.0" encoding="UTF-8" standalone="no"?>
<!-- Created with Inkscape (http://www.inkscape.org/) -->

<svg
   xmlns:dc="http://purl.org/dc/elements/1.1/"
   xmlns:cc="http://creativecommons.org/ns#"
   xmlns:rdf="http://www.w3.org/1999/02/22-rdf-syntax-ns#"
   xmlns:svg="http://www.w3.org/2000/svg"
   xmlns="http://www.w3.org/2000/svg"
   xmlns:sodipodi="http://sodipodi.sourceforge.net/DTD/sodipodi-0.dtd"
   xmlns:inkscape="http://www.inkscape.org/namespaces/inkscape"
   version="1.1"
   width="350"
   height="350"
   id="svg2991"
   inkscape:version="0.91 r13725"
   sodipodi:docname="Icon.svg">
  <sodipodi:namedview
     pagecolor="#ffffff"
     bordercolor="#666666"
     borderopacity="1"
     objecttolerance="10"
     gridtolerance="10"
     guidetolerance="10"
     inkscape:pageopacity="0"
     inkscape:pageshadow="2"
     inkscape:window-width="1097"
     inkscape:window-height="745"
     id="namedview3396"
     showgrid="false"
     inkscape:zoom="0.50911688"
     inkscape:cx="298.7023"
     inkscape:cy="209.34384"
     inkscape:window-x="119"
     inkscape:window-y="0"
     inkscape:window-maximized="0"
     inkscape:current-layer="svg2991" />
  <defs
     id="defs2993" />
  <metadata
     id="metadata2996">
    <rdf:RDF>
      <cc:Work
         rdf:about="">
        <dc:format>image/svg+xml</dc:format>
        <dc:type
           rdf:resource="http://purl.org/dc/dcmitype/StillImage" />
        <dc:title />
      </cc:Work>
    </rdf:RDF>
  </metadata>
  <rect
     style="opacity:1;fill:#ffffff;fill-opacity:1;stroke:#000000;stroke-width:4.9000001;stroke-miterlimit:4;stroke-dasharray:none;stroke-opacity:0"
     id="rect3398"
     width="347.66083"
     height="347.66083"
     x="3.928371"
     y="4.30335"
     ry="2.95359e-06" />
  <g
     id="g3398"
     transform="translate(25.00005,-99.999855)">
    <rect
       style="display:inline;fill:#000000;fill-opacity:1;stroke:none"
       id="rect3018"
       y="250"
       x="0"
       height="50"
       width="14.000075" />
    <rect
       style="display:inline;fill:#000000;fill-opacity:1;stroke:none"
       id="rect3026"
       y="268.99997"
       x="23.000025"
       height="31"
       width="14.000086" />
    <rect
       style="display:inline;fill:#000000;fill-opacity:1;stroke:none"
       id="rect3028"
       y="250"
       x="23.000025"
       height="12"
       width="14.000086" />
    <path
       inkscape:connector-curvature="0"
       style="display:inline;fill:#000000;fill-opacity:1;stroke:none"
       id="rect3030"
       d="m 46.000009,250.00001 0,18.99999 0,11 0,7.9687 0,12.0313 14.02306,0 9.92257,0 c 7.7535,0 14.054374,-6.9404 14.054374,-15.5 0,-8.5597 -6.300874,-15.5 -14.054374,-15.5 l -9.92257,0 0,-18.99999 -14.02306,0 z M 60.023069,280 l 5.94729,0 c 2.20031,0 3.97528,1.8012 3.97528,4 0,2.1988 -1.77497,3.9687 -3.97528,3.9687 l -5.94729,0 0,-7.9687 z" />
    <path
       inkscape:connector-curvature="0"
       style="display:inline;fill:#e74a45;fill-opacity:1;stroke:none"
       id="rect3030-3"
       d="m 104.02523,250.00001 c -7.736627,0 -14.023887,6.9403 -14.023887,15.49999 0,0.1068 -0.001,0.2081 0,0.3125 2.1e-4,0.021 -5e-4,0.041 0,0.062 l 0,18.25 c -0.003,0.1274 0,0.2468 0,0.375 0,8.5596 6.28726,15.5 14.023887,15.5 l 9.90113,0 1.15565,0 12.83711,0 1.15565,0 9.90113,0 c 7.73674,0 14.024,-6.9404 14.024,-15.5 0,-8.5597 -6.28726,-15.5 -14.024,-15.5 l -5.62209,0 -2.24884,0 -11.11925,0 0,11 11.11925,0 2.24884,0 1.65539,0 c 2.19557,0 3.9667,1.8012 3.9667,4 0,2.1988 -1.77113,3.9687 -3.9667,3.9687 l -3.90423,0 -2.0302,0 -1.15565,0 -12.83711,0 -1.15565,0 -2.0302,0 -3.90424,0 c -2.15389,0 -3.90122,-1.7031 -3.96669,-3.8437 l 0,-18.25 0,-0.062 c 0.0976,-2.1109 1.83403,-3.7813 3.96669,-3.7813 l 3.90424,0 2.0302,0 6.05936,0 0,0.031 30.98398,0 0,-12.06249 -23.05058,0 -7.9334,0 -6.05936,0 -9.90113,0 z" />
    <path
       inkscape:connector-curvature="0"
       style="display:inline;fill:#e74a45;fill-opacity:1;stroke:none"
       id="rect3030-3-4-2"
       d="m 159.9999,249.99991 0,12.05499 25.34216,0 8.71621,0 5.1801,0 2.0162,0 3.87732,0 c 2.11797,0 3.84248,1.6693 3.93936,3.7789 l 0,0.062 0,18.2386 c -0.065,2.1393 -1.80031,3.8413 -3.93936,3.8413 l -3.87732,0 -2.0162,0 -8.90233,0 -4.99398,0 -11.44585,0 0,-18.9569 -13.89631,0 0,18.9569 0,8.2137 0,3.8101 25.34216,0 4.99398,0 8.90233,0 9.83288,0 c 7.68341,0 13.92733,-6.936 13.92733,-15.4903 0,-0.1281 0.003,-0.2474 0,-0.3748 l 0,-18.2386 c 4.9e-4,-0.021 -2.1e-4,-0.042 0,-0.062 9.9e-4,-0.1043 0,-0.2055 0,-0.3123 0,-8.55429 -6.24392,-15.49029 -13.92733,-15.49029 l -9.83288,0 -5.1801,0 0,-0.031 -34.05837,0 z" />
    <path
       inkscape:connector-curvature="0"
       style="display:inline;fill:#e74a45;stroke:none"
       id="path4169"
       d="m 222.99599,250.00001 19.44141,0 19.0625,19.06249 19.0625,-19.06249 19.4375,0 -25,24.99999 25,25 -19.4375,0 -19.0625,-19.0625 -19.0625,19.0625 -19.4375,0 24.99609,-25 z" />
  </g>
</svg>
